<?xml version="1.0" standalone="no"?>
<!DOCTYPE svg PUBLIC "-//W3C//DTD SVG 20010904//EN"
 "http://www.w3.org/TR/2001/REC-SVG-20010904/DTD/svg10.dtd">
<svg version="1.0" xmlns="http://www.w3.org/2000/svg"
 width="1080.000000pt" height="1080.000000pt" viewBox="0 0 1080.000000 1080.000000"
 preserveAspectRatio="xMidYMid meet">
<metadata>
Created by potrace 1.16, written by Peter Selinger 2001-2019
</metadata>
<g transform="translate(0.000000,1080.000000) scale(0.100000,-0.100000)"
fill="#ffffff" stroke="none">
<path d="M0 5400 l0 -5400 5400 0 5400 0 0 5400 0 5400 -5400 0 -5400 0 0
-5400z m5538 442 l2 -432 39 22 38 22 7 110 c3 61 6 231 6 379 0 180 3 267 10
267 6 0 24 -7 39 -15 l28 -14 8 -331 c8 -358 7 -353 62 -306 l28 24 -4 271
c-2 149 1 271 5 271 17 0 73 -39 82 -57 6 -11 7 -125 4 -282 l-5 -263 -66 -43
c-102 -66 -346 -205 -359 -205 -9 0 -12 130 -12 531 l0 530 43 -23 42 -23 3
-433z m-182 -54 c-3 -287 -8 -524 -11 -526 -5 -6 -418 228 -427 242 -12 17
-10 534 2 557 9 16 58 49 75 49 3 0 5 -121 5 -269 l0 -269 31 -26 c57 -49 59
-44 59 147 0 94 3 243 7 330 l6 158 28 15 c15 8 33 14 39 14 7 0 10 -121 10
-378 l0 -378 35 -17 c20 -9 40 -17 45 -17 6 0 10 160 10 430 l0 430 33 14 c65
29 61 67 53 -506z m-774 -807 c16 -18 31 -49 34 -72 5 -32 10 -39 23 -33 32
14 76 15 92 2 33 -26 33 -56 -1 -89 -28 -29 -35 -31 -76 -25 -24 3 -44 2 -44
-2 0 -4 -3 -17 -6 -29 -6 -21 -4 -21 29 -11 43 13 84 4 89 -20 2 -9 -4 -53
-14 -97 -9 -44 -15 -88 -12 -97 11 -37 31 -15 53 59 20 68 20 78 7 85 -27 15
-18 34 40 87 112 103 166 106 128 8 -4 -11 2 -16 23 -19 25 -3 28 -7 28 -38 0
-32 -3 -35 -32 -38 -40 -4 -49 -15 -61 -79 -13 -72 -2 -87 54 -78 35 5 44 3
44 -8 0 -22 -55 -65 -98 -77 -53 -14 -73 -13 -109 10 -32 19 -33 19 -75 0 -57
-26 -91 -25 -125 4 l-28 24 21 106 c12 59 18 108 15 111 -4 2 -20 -22 -36 -52
-57 -110 -187 -213 -268 -213 -54 0 -64 20 -42 88 26 82 34 122 25 122 -5 0
-12 -9 -15 -21 -10 -32 -124 -148 -166 -170 -46 -23 -117 -26 -125 -4 -3 8 12
58 34 112 64 155 64 244 1 251 -35 4 -55 -20 -34 -42 9 -8 22 -13 30 -10 21 9
19 -30 -2 -52 -23 -23 -76 -44 -110 -44 -69 1 -123 63 -123 142 0 182 244 287
371 159 69 -68 75 -170 19 -305 l-29 -71 44 48 c55 60 96 145 105 219 7 66 18
81 51 76 68 -9 109 -186 73 -315 -19 -69 63 38 96 125 24 64 27 130 5 139 -9
3 -22 -2 -30 -13 -19 -26 -46 -9 -64 42 -12 36 -12 44 4 77 23 49 58 68 115
63 34 -3 51 -11 72 -35z m1222 24 c91 -44 97 -186 14 -355 -69 -140 -197 -250
-290 -250 -57 0 -65 20 -40 93 11 34 23 76 26 92 l6 30 -18 -25 c-92 -130
-157 -181 -237 -188 -69 -6 -77 8 -42 82 63 133 81 231 51 274 -21 31 -68 27
-72 -5 -2 -14 2 -23 10 -24 45 -4 44 -4 36 -37 -7 -26 -77 -61 -123 -62 -42 0
-89 31 -108 73 -50 106 22 235 151 273 143 42 262 -43 262 -188 0 -58 -29
-161 -58 -205 -29 -46 8 -22 47 30 52 68 80 132 92 209 12 74 14 78 43 78 71
0 118 -167 86 -305 -5 -22 -7 -41 -6 -43 8 -7 76 98 96 148 22 57 31 132 17
146 -4 5 -16 3 -25 -4 -35 -25 -45 -25 -64 -3 -25 32 -24 101 3 135 37 47 87
57 143 31z m573 -229 c-6 -42 -5 -44 23 -50 21 -4 30 -11 30 -25 0 -35 -12
-51 -39 -51 -38 0 -47 -10 -60 -67 -16 -68 -8 -95 27 -91 21 2 26 8 24 25 -14
101 97 213 212 213 76 0 115 -30 116 -88 0 -52 -76 -112 -143 -112 -30 0 -40
-10 -26 -27 17 -20 48 -16 116 14 61 28 62 29 73 79 6 29 8 63 5 76 -5 20 0
26 30 41 61 29 115 20 115 -19 l0 -24 42 30 c23 17 54 30 70 30 33 0 68 -31
68 -61 0 -46 -51 -99 -95 -99 -7 0 -22 11 -33 25 l-20 25 -26 -30 c-14 -17
-30 -50 -36 -73 -25 -99 -26 -99 -118 -112 l-43 -5 7 37 c7 37 6 37 -12 21
-66 -58 -186 -75 -246 -34 l-35 23 -39 -20 c-50 -26 -125 -28 -151 -4 -19 17
-22 17 -64 -3 -76 -34 -122 -23 -143 34 -6 16 -10 14 -46 -18 -39 -35 -88 -47
-116 -28 -26 18 -44 60 -44 103 0 145 139 262 240 203 26 -16 29 -16 51 0 13
9 33 16 45 16 40 0 44 -19 22 -116 -12 -51 -18 -99 -15 -108 8 -21 37 -21 37
1 0 9 8 41 17 70 14 43 15 58 5 73 -20 32 -14 45 40 91 70 60 100 79 122 79
16 0 18 -5 13 -44z"/>
</g>
</svg>
